<?xml version="1.0" encoding="UTF-8"?>
<svg width="153px" height="40px" viewBox="0 0 153 40" version="1.1" xmlns="http://www.w3.org/2000/svg" xmlns:xlink="http://www.w3.org/1999/xlink">
    <title>AOL_DesktopGold</title>
    <g id="Page-1" stroke="none" stroke-width="1" fill="none" fill-rule="evenodd">
        <g id="DesktopGold-LP" transform="translate(-1179.000000, -23.000000)" fill-rule="nonzero">
            <g id="Group" transform="translate(1179.000000, 23.000000)">
                <path d="M65.6115524,10.530924 C65.6115524,16.3507079 61.7869199,20.2305585 55.7732345,20.2305585 L48.7897207,20.2305585 L48.7897207,0.831440329 L55.7732157,0.831440329 C61.7869105,0.831440329 65.6115524,4.73891581 65.6115524,10.530924 Z M51.3113587,3.18692402 L51.3113587,17.874924 L55.7732251,17.874924 C60.2350915,17.874924 63.0340741,15.1313199 63.0340741,10.530924 C63.0340741,5.95830068 60.2906239,3.18692402 55.7732251,3.18692402 L51.3113587,3.18692402 Z" id="Shape" fill="#004FCE"></path>
                <path d="M80.0230842,13.0528667 L80.0230842,14.1891195 L69.4091757,14.1891195 C69.6030773,16.7664375 71.3491058,18.3184104 73.7323651,18.3184104 C75.5891505,18.3184104 76.947071,17.5147331 77.5014651,16.0459048 L79.8847276,16.0459048 C79.0532872,18.8172752 76.8915386,20.535371 73.6768358,20.535371 C69.7417544,20.535371 66.9424639,17.6810099 66.9424639,13.2745219 C66.9424639,9.06224027 69.6030773,5.95829439 73.6768358,5.95829439 C77.3351789,5.95829439 80.0230842,8.34156943 80.0230842,13.0528667 Z M69.4367754,12.055137 L77.6122095,12.055137 C77.5842925,9.67187458 76.0048581,8.17543405 73.6768233,8.17543405 C71.2659548,8.17543405 69.7138342,9.8381639 69.4367754,12.055137 L69.4367754,12.055137 Z" id="Shape" fill="#004FCE"></path>
                <path d="M91.4417664,10.364641 L89.0029746,10.364641 C88.9753624,8.89596665 88.2825866,8.17543405 86.7860015,8.17543405 C85.317324,8.17543405 84.6521699,9.03448977 84.6521699,10.0598317 C84.6521699,11.140706 85.2065671,11.5840384 87.2848632,12.0829032 C90.6103355,12.8588143 91.8574865,14.0228333 91.8574865,16.2675726 C91.8574865,18.9834106 89.7512703,20.5353835 86.9522877,20.5353835 C83.7099695,20.5353835 81.9084118,18.7063644 81.8531872,15.9905264 L84.291979,15.9905264 C84.3195912,17.4592007 85.2617916,18.3184104 87.0078169,18.3184104 C88.6151683,18.3184104 89.4186917,17.5147331 89.4186917,16.4338588 C89.4186917,15.2699938 88.8090699,14.7155966 86.5089521,14.1891257 C83.5989078,13.5239747 82.213375,12.4986297 82.213375,10.1983611 C82.213375,7.98138795 83.8207264,5.95831324 86.8415308,5.95831324 C89.5573719,5.95831324 91.3865544,7.73194768 91.4417664,10.364641 Z" id="Path" fill="#004FCE"></path>
                <polygon id="Path" fill="#004FCE" points="96.9651292 12.8034359 102.202904 6.2631194 105.112951 6.2631194 100.595552 12.0551276 105.83333 20.2305585 103.089879 20.2305585 98.9326684 13.8843102 96.9651292 16.2675726 96.9651292 20.2305585 94.5818667 20.2305585 94.5818667 0 96.9651292 0"></polygon>
                <path d="M111.230387,6.2631194 L114.805595,6.2631194 L114.805595,8.48024649 L111.202775,8.48024649 L111.147243,15.9627602 C111.147243,17.4869669 111.535351,18.2352657 113.142702,18.2352657 C113.707262,18.2490497 114.269925,18.1646502 114.805595,17.9858317 L114.805595,20.1196634 C114.138068,20.3511205 113.432872,20.4545837 112.726991,20.4246266 C110.094298,20.4246266 108.736377,19.2606076 108.76399,16.4060989 L108.819522,8.48025906 L106.214438,8.48025906 L106.214438,6.2631194 L108.819522,6.2631194 L108.847134,2.77137037 L111.258317,2.77137037 L111.230387,6.2631194 Z" id="Path" fill="#004FCE"></path>
                <path d="M129.881681,13.2469097 C129.881681,17.4869544 126.971942,20.535371 122.814734,20.535371 C118.630218,20.535371 115.720183,17.4869544 115.720183,13.2469097 C115.720183,9.00671101 118.630228,5.95829439 122.814734,5.95829439 C126.971942,5.95829439 129.881681,9.00672357 129.881681,13.2469097 Z M118.186886,13.2469097 C118.186886,16.1290369 120.043668,18.3183978 122.842651,18.3183978 C125.614021,18.3183978 127.415274,16.1290369 127.415274,13.2469097 C127.415274,10.3370162 125.614021,8.17542148 122.842651,8.17542148 C120.043668,8.17542148 118.186886,10.3370287 118.186886,13.2469097 Z" id="Shape" fill="#004FCE"></path>
                <path d="M145.466403,13.2469097 C145.466403,17.3760466 142.861318,20.535371 138.926237,20.535371 C136.598202,20.535371 135.04638,19.5100291 134.298084,18.3183978 L134.298084,26.1888812 L131.886902,26.1888812 L131.886902,6.2631194 L134.04865,6.2631194 L134.159407,8.31395717 C135.018463,7.06679353 136.431913,5.95832267 138.953849,5.95832267 C142.889238,5.95832267 145.466403,9.11763129 145.466403,13.2469097 Z M134.242552,13.1082326 L134.242552,13.2469097 C134.242552,16.3507016 136.348768,18.2628654 138.565741,18.2628654 C141.170825,18.2628654 142.999995,16.1844154 142.999995,13.2469097 C142.999995,10.2814743 141.253967,8.20303374 138.593661,8.20303374 C136.321156,8.20303374 134.242552,10.0875979 134.242552,13.1082452 L134.242552,13.1082326 Z" id="Shape" fill="#004FCE"></path>
                <path d="M5.18936101,20.2335902 L0,20.2335902 L7.45611727,0.815131848 L11.3344065,0.815131848 L18.7904578,20.2335902 L13.546155,20.2335902 L12.5904737,17.4202344 L6.17282427,17.4202344 L5.18936101,20.2335902 Z M9.39526189,7.17853694 L7.45611727,13.4062967 L11.3065649,13.4062967 L9.39526189,7.17853694 Z" id="Shape" fill="#000000"></path>
                <path d="M21.4702669,7.47899501 C23.6626501,5.26212439 26.9708739,4.57662294 29.8636398,5.73979306 C32.7564057,6.90296317 34.6692115,9.68782066 34.7166645,12.8053209 C34.77332,14.8710621 33.9724206,16.8681198 32.5041368,18.3222998 C31.0420336,19.8212708 29.0265861,20.6510934 26.9329199,20.6161437 C24.8316073,20.6741352 22.8086555,19.8168437 21.3888565,18.2666669 C19.986053,16.8185153 19.2108222,14.8756484 19.2313491,12.8595683 C19.2239518,10.8379827 20.0309557,8.8985887 21.4702669,7.47899501 Z M26.9600734,16.5187942 C28.9129586,16.4802262 30.4653607,14.8668122 30.4286557,12.9138912 C30.4879371,11.6364144 29.8401614,10.4297709 28.7426592,9.77330306 C27.645157,9.11683518 26.2756308,9.11683518 25.1781286,9.77330306 C24.0806264,10.4297709 23.4328507,11.6364144 23.4921321,12.9138912 C23.4650892,14.8627643 25.0116144,16.4703675 26.9600734,16.5187942 L26.9600734,16.5187942 Z" id="Shape" fill="#000000"></path>
                <polygon id="Path" fill="#000000" points="41.3818377 0.815131848 41.3818377 20.2335902 37.0939075 20.2335902 37.0939075 0.815131848"></polygon>
                <path d="M146.964797,17.4853113 C146.964988,19.0815339 148.259069,20.3754092 149.855292,20.3753461 C151.451514,20.3752831 152.745493,19.0813056 152.745558,17.4850829 C152.745623,15.8888603 151.451749,14.5947778 149.855526,14.5945852 C148.259052,14.594658 146.964872,15.888837 146.964797,17.4853113 Z" id="Path" fill="#000000"></path>
                <path d="M66.6249213,32.6098482 L64.9448556,32.6098482 C64.5791448,31.5937114 63.7799193,30.9299396 62.3302647,30.9299396 C60.4878997,30.9299396 59.227852,32.4065907 59.227852,34.4252136 C59.227852,36.430186 60.4878997,37.9203368 62.3845687,37.9203368 C63.9560232,37.9203368 65.0261593,37.1617616 65.1074661,35.6038069 L62.5336762,35.6038069 L62.5336762,34.1813059 L66.7197248,34.1813059 L66.7197248,34.9128815 C66.7197248,37.7035795 65.0126595,39.342841 62.3845687,39.342841 C59.5938676,39.342841 57.6293947,37.256565 57.6293947,34.4252136 C57.6293947,31.5937114 59.5938676,29.5074355 62.3437614,29.5074355 C64.6604484,29.5074355 66.110103,30.7403327 66.6249213,32.6098482 Z" id="Path" fill="#FF9D00"></path>
                <path d="M77.8288286,34.411563 C77.8288286,37.2430652 75.8103564,39.342841 72.9653544,39.342841 C70.1068526,39.342841 68.0748806,37.2430652 68.0748806,34.411563 C68.0748806,31.5937114 70.1068526,29.5074355 72.9653544,29.5074355 C75.8103564,29.5074355 77.8288286,31.5937146 77.8288286,34.411563 Z M69.6733316,34.411563 C69.6733316,36.430186 70.9876865,37.9203368 72.9653513,37.9203368 C74.9298241,37.9203368 76.2438679,36.430186 76.2438679,34.411563 C76.2438679,32.4065907 74.9298241,30.9299491 72.9653513,30.9299491 C70.9876896,30.9299491 69.6733316,32.4065907 69.6733316,34.411563 L69.6733316,34.411563 Z" id="Shape" fill="#FF9D00"></path>
                <polygon id="Path" fill="#FF9D00" points="81.0398493 37.7442329 85.1445943 37.7442329 85.1445943 39.1667433 79.5226988 39.1667433 79.5226988 29.6835426 81.0398493 29.6835426"></polygon>
                <path d="M94.9261544,34.4252136 C94.9261544,37.256565 93.0429821,39.1667339 90.0761801,39.1667339 L86.6080534,39.1667339 L86.6080534,29.6835426 L90.0761801,29.6835426 C93.0429821,29.6835426 94.9261544,31.6073652 94.9261544,34.4252136 Z M88.1252039,31.1060436 L88.1252039,37.7442329 L90.0761895,37.7442329 C92.1216582,37.7442329 93.368206,36.5249894 93.368206,34.4252136 C93.368206,32.3389408 92.1489625,31.1060436 90.0761895,31.1060436 L88.1252039,31.1060436 Z" id="Shape" fill="#FF9D00"></path>
                <rect id="Rectangle" fill="#FF9D00" x="0.298997187" y="34.1894366" width="50.5975618" height="1.25667351"></rect>
                <rect id="Rectangle" fill="#FF9D00" x="101.686869" y="34.1894366" width="50.5975618" height="1.25667351"></rect>
            </g>
        </g>
    </g>
</svg>