<?xml version="1.0" encoding="UTF-8"?>
<svg width="102px" height="40px" viewBox="0 0 102 40" version="1.1" xmlns="http://www.w3.org/2000/svg" xmlns:xlink="http://www.w3.org/1999/xlink">
    <!-- Generator: Sketch 54 (76480) - https://sketchapp.com -->
    <title>AOL_KO</title>
    <desc>Created with Sketch.</desc>
    <g id="approved" stroke="none" stroke-width="1" fill="none" fill-rule="evenodd">
        <g id="iPhone-XR" transform="translate(-146.000000, -43.000000)" fill="#FFFFFF">
            <g id="AOL_KO" transform="translate(146.000000, 43.000000)">
                <g>
                    <path d="M54.6477469,8.76847291 C65.2095877,8.76847291 70.2753595,17.182266 70.2753595,24.3842365 C70.2753595,31.5763547 65.2095877,40 54.6477469,40 C44.085906,40 39.0103547,31.5862069 39.0103547,24.3842365 C39.0103547,17.182266 44.085906,8.76847291 54.6477469,8.76847291 M54.6477469,31.7832512 C58.4128476,31.7832512 61.6009588,28.6600985 61.6009588,24.3743842 C61.6009588,20.08867 58.4128476,16.9655172 54.6477469,16.9655172 C50.8826462,16.9655172 47.694535,20.08867 47.694535,24.3743842 C47.694535,28.6600985 50.8826462,31.7832512 54.6477469,31.7832512" id="Shape" fill-rule="nonzero"></path>
                    <rect id="Rectangle" fill-rule="nonzero" x="75.1944391" y="0" width="8.79175455" height="39.1625616"></rect>
                    <path d="M23.1480345,0 L15.3146692,0 L0,39.1625616 L10.3760307,39.1625616 L12.429722,33.4975369 L25.935187,33.4975369 L27.8324065,39.1625616 L38.3160115,39.1625616 L23.1480345,0 Z M15.1581975,25.5665025 L19.2264621,11.91133 L23.2947267,25.5665025 L15.1581975,25.5665025 Z" id="Shape" fill-rule="nonzero"></path>
                    <path d="M23.1480345,0 L15.3146692,0 L0,39.1625616 L10.3760307,39.1625616 L12.429722,33.4975369 L25.935187,33.4975369 L27.8324065,39.1625616 L38.3160115,39.1625616 L23.1480345,0 Z M15.1581975,25.5665025 L19.2264621,11.91133 L23.2947267,25.5665025 L15.1581975,25.5665025 Z" id="Shape" fill-rule="nonzero"></path>
                    <path d="M23.1480345,0 L15.3146692,0 L0,39.1625616 L10.3760307,39.1625616 L12.429722,33.4975369 L25.935187,33.4975369 L27.8324065,39.1625616 L38.3160115,39.1625616 L23.1480345,0 Z M15.1581975,25.5665025 L19.2264621,11.91133 L23.2947267,25.5665025 L15.1581975,25.5665025 Z" id="Shape" fill-rule="nonzero"></path>
                    <path d="M101.990221,33.5566502 C101.990221,36.8078818 99.3693193,39.4482759 96.1518696,39.4482759 C92.9246405,39.4482759 90.3037392,36.8078818 90.3037392,33.5566502 C90.3037392,30.3054187 92.9246405,27.6650246 96.1518696,27.6650246 C99.3790988,27.6650246 101.990221,30.2955665 101.990221,33.5566502" id="Path" fill-rule="nonzero"></path>
                </g>
            </g>
        </g>
    </g>
</svg>