<svg height="30" viewBox="0 0 136 30" width="136" xmlns="http://www.w3.org/2000/svg"><g fill="#fff" transform="translate(.239067)"><path d="m70.9285409 2.5515671 1.1161745 1.92874364c1.5634361-1.36217519 5.3592213-2.45512992 5.3592213.80364318v.5304045s-3.4989303-.03616394-5.4344245 1.09697295c-1.0232434.57582364-1.6366839 1.69056904-1.5832264 2.87704259 0 2.26627374 1.2388747 4.42003754 4.0411853 4.42003754 1.1630728.0158846 2.2662532-.522522 2.9804236-1.4545942v1.1050094h3.0358714v-8.63514601c.0197555-6.42914546-8.4069668-4.37181892-9.5152252-2.67211359zm6.3329054 7.9440129c-.5733994.7105978-1.422821 1.1329636-2.3273427 1.1572461-.9143133 0-1.860291-.578623-1.860291-1.5671042 0-1.3983391 2.0621523-1.65952313 3.2376979-1.65952313.2572743 0 .8866067.06027324.9420197.06027324z"/><path d="m13.457424.80364318c-1.4532134.01139451-2.8309305.65872967-3.77995288 1.77605144-.88180578-1.14018791-2.23739055-1.79707119-3.66516902-1.77605144-1.11972773.01340392-2.17037239.5519016-2.84584938 1.45861238v-1.10500938h-3.16645272v12.67345302h3.32081729v-7.90784895c.11874197-1.08491829.58183568-1.8443611 1.33782627-2.12965443.24738612-.05188974.49942375-.07747652.75203252-.0763461 1.34574241 0 2.10964912 1.10500937 2.10964912 2.84891508v7.2649344h3.2931108v-7.32922585c0-1.41441201.4947583-2.41092955 1.4051134-2.72435039.2261284-.0399512.4552183-.06011635.6847454-.06027324 1.3457424 0 2.0898588 1.10500937 2.0898588 2.84891508v7.2649344h3.3208173v-7.93597646c-.0197903-2.84891508-1.8800813-5.09107956-4.8565469-5.09107956z"/><path d="m24.8170732 9.70399143-2.8616817-8.54674525h-3.5622593l4.5913565 12.55692472c-.0831194 1.2496652-1.0845101 3.777123-3.3485238 3.777123v2.9091883c1.8048781 0 4.6665597-.7554246 5.8421053-3.7208679 1.9157039-4.8218591 5.6956568-15.52236812 5.6956568-15.52236812h-3.4910141z"/><path d="m41.5161532 2.75649612c-.9678743-.87663451-2.1578428-1.46117588-3.4356012-1.68765069-.707473-.12983224-1.4270994-.17835668-2.1452717-.14465577-1.3792801.00408316-2.75688.09803465-4.1243047.28127511v19.19501743h3.3208173v-6.6581838c.6685759.2970837 1.3917552.4463831 2.1215233.4379856 3.5458874-.1145334 6.3669895-3.0566318 6.3843603-6.65818381-.0261279-1.81835331-.7944091-3.54415283-2.1215233-4.76560407zm-4.4369919 8.45834448c-.7084421.0257136-1.4134317-.1116574-2.0621523-.4018216v-6.86311276c.1741549-.03214573.9736842-.11652826 1.262623-.11652826 1.4605263 0 2.3748395.46209483 2.9764656 1.07286365.705332.68274551 1.1080337 1.62651438 1.1161745 2.61585856.0454115 1.92453013-1.4022249 3.54784181-3.2931108 3.69274041z"/><path d="m48.0430039 2.26225556v-1.10500938h-3.1466624v12.67345302h3.3208173v-7.93597646c0-2.35467452 2.347133-2.121618 2.347133-2.121618.5393917.07690884 1.0460212.30828706 1.4605263.66702384l1.4090715-2.7283686c-.5818357-.50629521-2.0700685-.9081168-2.6123235-.9081168-1.0928748.04595117-2.1098901.57983555-2.7785622 1.45861238z"/><path d="m54.0513479 1.15724618h3.2931108v12.67345302h-3.2931108z"/><path d="m67.3583654 1.15724618-2.8656397 8.54674525-2.8616816-8.54674525h-3.5780916l4.6665597 12.67345302h3.4633077l4.6665596-12.67345302z"/><path d="m90.5447154 10.2826145c-.7005014.6094806-1.5947997.9406602-2.5173299.9322261-1.745507 0-3.2376979-1.71577818-3.2376979-3.72086792s1.4961489-3.72086794 3.2376979-3.72086794c.9225302-.00843407 1.8168285.3227455 2.5173299.93222609l1.5198974-2.41092954c-.3930115-.33253968-.8267145-.61211281-1.2903295-.8317707-.8479602-.44662897-1.7917041-.67303542-2.7468978-.65898741-.7644806-.00391047-1.5233868.13220953-2.2402653.40182159-2.559268.99476362-4.2443593 3.494401-4.2312509 6.27645326-.0121352 2.55034287 1.4024603 4.88671957 3.6494153 6.02732387 1.7554676.8785753 3.813531.8785753 5.5689987 0 .463615-.2196579.897318-.499231 1.2903295-.8317707z"/><path d="m98.5795892 9.70399143-2.8656397-8.54674525h-3.5622593l4.6111468 12.55692472c-.0870775 1.2496652-1.0884682 3.777123-3.3485238 3.777123v2.9091883c1.80092 0 4.6665597-.7554246 5.8381472-3.7208679 1.9196616-4.8218591 5.6996146-15.52236812 5.6996146-15.52236812h-3.494972z"/><path d="m108.003744 1.28582909c.000553-.17357994-.087917-.33494183-.233526-.42593088-.202892-.10972159-.431441-.16112772-.660997-.14867399-.241442 0-.344352.02410929-.447261.02410929v2.00910796h.455177v-.8317707h.071246l.538297.83980713h.534338l-.629332-.92017144c.229669-.07824216.381134-.30071267.372058-.54647737zm-.609542.20492901c-.09252.02688342-.189093.03641514-.284981.02812751v-.40182159h.098952c.096971-.00756146.194137.01188909.281023.05625503.052213.03493129.084633.09327708.087077.15671042 0 .06429145-.091036.13260112-.182071.16072863z"/><path d="m107.338789 0c-.467101 0-.9149.1891855-1.244075.52562505-.329174.33643956-.512511.79231025-.509348 1.26649925-.030699.65540572.296248 1.27481386.850792 1.61184562.554545.33703176 1.246759.33703176 1.801304 0s.881491-.9564399.850792-1.61184562c.00316-.47349338-.179636-.92875304-.507953-1.26507588s-.775097-.52599043-1.241512-.52704842zm0 3.16635414c-.55086.00651982-1.050988-.32555016-1.265888-.84051186s-.101962-1.11070716.285862-1.50790842c.387823-.39720127.973633-.51710023 1.48276-.30347971.509126.21362052.840619.71840329.839056 1.27767015 0 .75428336-.598826 1.36761332-1.34179 1.37422984z"/><path d="m38.9038297 17.56764h50.2911853v2.736405h-50.2911853z"/><path d="m38.9038297 23.04045h2.2996363c.6511649-.0393926 1.290458.1894988 1.7732135.6348782.3556566.3774618.5467977.8842978.5303808 1.4063755.0264154.9649574-.6469986 1.8041351-1.5832263 1.972944l1.8088361 2.8127512h-.8668164l-1.7019684-2.6439861h-1.5317715v2.6560407h-.7282841zm2.1769362 3.515939c1.0963843 0 1.7019684-.5545138 1.7019684-1.4264667 0-.9000803-.6135002-1.3983391-1.6267651-1.3983391h-1.5317715v2.8448968z"/><path d="m44.6588575 23.04045h4.1124305v.6670239h-3.3881044v2.4109295h3.0397946v.6429146h-3.0397946v2.4430752h3.4356012v.6750603h-4.1599273z"/><path d="m49.7687206 23.04045h2.0304878c1.4367779 0 2.3748395.8036432 2.3748395 2.1698366 0 1.4465578-1.080552 2.2301099-2.4540008 2.2381463h-1.2230424v2.4109295h-.7243261zm1.9790329 3.7610501c1.0488875 0 1.7059264-.614787 1.7059264-1.5550495 0-.9965176-.6570389-1.5269221-1.6742618-1.5269221h-1.2705392v3.0819716z"/><path d="m55.017116 27.3238682v-4.2834182h.720368v4.2834182c0 1.2898473.6451647 2.009108 1.7019683 2.009108s1.6861361-.6750603 1.6861361-1.9729441v-4.3195821h.720368v4.2512725c0 1.7559603-.9697262 2.6962229-2.4262944 2.6962229-1.4565683 0-2.402546-.9402626-2.402546-2.6640772z"/><path d="m62.5572315 23.7074739h-1.8879974v-.6830967h4.504279v.6830967h-1.8959136v6.1719796h-.720368z"/><path d="m67.3544074 23.0002679h.724326l2.5687848 6.8791856h-.7916132l-.6530809-1.7961425h-3.0239623l-.6530809 1.7961425h-.7441164zm1.6148908 4.4200375-1.2863714-3.4717386-1.2784553 3.4677204z"/><path d="m72.1792897 23.7074739h-1.8879974v-.6830967h4.5161531v.6830967h-1.8959135v6.1719796h-.720368z"/><path d="m75.7257167 23.04045h.720368v6.8309671h-.720368z"/><path d="m77.4949722 26.520225v-.0803643c0-2.009108 1.1874198-3.4958478 2.9052204-3.4958478s2.8893881 1.4746852 2.8893881 3.4797749v.0763461c0 2.009108-1.1874198 3.4998661-2.8973043 3.4998661-1.7098844 0-2.8973042-1.470667-2.8973042-3.479775zm5.0544501 0v-.0723279c0-1.6514867-.9143132-2.8127511-2.1571459-2.8127511s-2.1452717 1.1612644-2.1452717 2.8127511v.0683097c0 1.6514867.9143132 2.8127511 2.1531879 2.8127511 1.2388746 0 2.1492297-1.1813554 2.1492297-2.8087329z"/><path d="m84.2751391 23.04045h.6847454l3.5226786 5.3844094v-5.3844094h.7124519v6.8309671h-.6055841l-3.6097561-5.5049558v5.5129922h-.7045357z"/><path d="m90.5724219 23.04045h2.1769363c1.9552845 0 3.2139495 1.3661935 3.2139495 3.3712832v.1084918c0 2.009108-1.258665 3.3793196-3.2139495 3.3793196h-2.1769363zm1.3971973 1.2777927v4.2793999h.7718228c1.0568036 0 1.7771716-.7514063 1.7771716-2.1095633v-.0482186c0-1.358157-.720368-2.121618-1.7771716-2.121618z"/><path d="m96.7113821 23.04045h4.3538729v1.2777927h-2.9527176v1.4746852h2.5964916v1.2818109h-2.5964916v1.5229038h2.9922976v1.2818109h-4.3934529z"/><path d="m102.062687 23.04045h4.353873v1.2978838h-2.944801v1.5349585h2.588575v1.2978837h-2.588575v2.7082775h-1.397198z"/><path d="m107.140886 23.04045h4.353872v1.2777927h-2.956675v1.4746852h2.600449v1.2818109h-2.600449v1.5229038h2.992298v1.2818109h-4.389495z"/><path d="m112.492191 23.04045h1.278455l2.596491 3.9860702v-3.9860702h1.365533v6.8309671h-1.18742l-2.667736-4.1347442v4.1427806h-1.365533z"/><path d="m118.741977 23.04045h2.172978c1.955285 0 3.21395 1.3661935 3.21395 3.3712832v.1084918c0 2.009108-1.258665 3.3793196-3.21395 3.3793196h-2.172978zm1.393239 1.2777927v4.2793999h.791613c1.056804 0 1.78113-.7514063 1.78113-2.1095633v-.0482186c0-1.358157-.724326-2.121618-1.78113-2.121618z"/><path d="m124.904685 23.04045h4.353873v1.2777927h-2.956675v1.4746852h2.600449v1.2818109h-2.600449v1.5229038h2.992298v1.2818109h-4.389496z"/><path d="m130.255991 23.04045h2.529204c.673109-.0364354 1.332286.204011 1.828626.6670239.393961.4272016.599727.9987575.569962 1.5831771v.0241092c.041246.8702212-.458805 1.6734656-1.250749 2.009108l1.43282 2.5555853h-1.583227l-1.238874-2.2461827h-.878691v2.2461827h-1.393239zm2.426294 3.3391375c.285698.0383565.573456-.0537401.78583-.2515038s.327543-.4808754.314512-.7731413c0-.6871149-.415597-1.0286633-1.128048-1.0286633h-1.001391v2.0613448z"/><path d="m13.033911 23.2132333h3.9580659v.6549692h-3.2574882v2.4109296h2.9091784v.6429145h-2.9091784v2.9252612h-.7005777z"/><path d="m17.8112965 23.2132333h2.2363073c.6322281-.0349901 1.2520433.1877733 1.7217586.6188053.3431047.3678881.5269638.8598424.5105905 1.3661934.0249158.9419242-.6364952 1.7589843-1.5515618 1.916689l1.7613393 2.7243504h-.8311938l-1.6465554-2.5796947h-1.4882328v2.5796947h-.7124519zm2.1136072 3.4195018c1.0647197 0 1.6544716-.5424592 1.6544716-1.3862845 0-.8719529-.597668-1.358157-1.5832264-1.358157h-1.4724005v2.7645325z"/><path d="m23.0240693 26.5845165v-.0642915c0-1.9568711 1.1597133-3.3994106 2.822101-3.3994106s2.8062687 1.434503 2.8062687 3.3793195v.0763461c0 1.9568712-1.1478391 3.3994107-2.8141848 3.3994107-1.6663458 0-2.8141849-1.4465577-2.8141849-3.3913742zm4.9080017 0v-.0642915c0-1.6072863-.8866067-2.7444414-2.0938168-2.7444414s-2.0898588 1.1371551-2.0898588 2.7444414v.0642915c0 1.6072863.8905648 2.7444414 2.0938168 2.7444414 1.2032521 0 2.0898588-1.1492097 2.0898588-2.7524779z"/><path d="m29.6182071 23.2132333h.7282841l1.979033 3.5601393 2.0027813-3.5601393h.7322422v6.6461291h-.6926615v-5.3482453l-2.0186136 3.5521028h-.0277065l-2.0225717-3.5521028v5.3482453h-.6807873z"/></g></svg>