<svg fill="none" viewBox="0 0 96 96" xmlns="http://www.w3.org/2000/svg"><path d="M0 0h96v96H0z" fill="#003087"/><g fill="#fff"><path d="M34.933 69.999H22.048a1.73 1.73 0 0 1-1.702-1.993l8.688-55.076a2.123 2.123 0 0 1 2.094-1.791h22.139c10.483 0 18.109 7.622 17.93 16.862 6.2 3.237 9.818 9.81 8.689 17.01a20.83 20.83 0 0 1-20.569 17.633h-6.519a2.117 2.117 0 0 0-2.094 1.791l-2.919 18.49a2.12 2.12 0 0 1-2.094 1.792h-11.07a1.73 1.73 0 0 1-1.703-1.99l2.017-12.725z" fill-opacity=".45"/><path d="M71.197 28a19.372 19.372 0 0 0-9.033-2.147H43.708a2.12 2.12 0 0 0-2.095 1.791l-3.483 22.07.01-.058a2.125 2.125 0 0 1 2.085-1.73h10.2a20.839 20.839 0 0 0 20.569-17.632 16.94 16.94 0 0 0 .203-2.293z" fill-opacity=".45"/><path d="M34.94 69.999H22.047a1.728 1.728 0 0 1-1.702-1.993l8.688-55.076a2.123 2.123 0 0 1 2.094-1.791h22.139c10.483 0 18.109 7.622 17.93 16.862a19.37 19.37 0 0 0-9.033-2.148H43.708a2.12 2.12 0 0 0-2.095 1.791l-3.483 22.07.01-.058z"/></g></svg>