<svg xmlns="http://www.w3.org/2000/svg" fill="none" viewBox="0 0 96 96"><path fill="#6FC400" d="M12 32a4 4 0 0 1 4-4h48a4 4 0 0 1 4 4v48a4 4 0 0 1-4 4H16a4 4 0 0 1-4-4V32z"/><path fill="#5BBBFC" d="M28 16a4 4 0 0 1 4-4h48a4 4 0 0 1 4 4v48a4 4 0 0 1-4 4H32a4 4 0 0 1-4-4V16z"/><path fill="#FAF8F5" d="M68 68H32a4 4 0 0 1-4-4V28h36a4 4 0 0 1 4 4v36z"/><path fill="#001C64" fill-rule="evenodd" d="M60.583 36.471a1 1 0 0 1 .15 1.407L44.668 57.755a1 1 0 0 1-1.492.071L35.45 49.94a1 1 0 0 1 .014-1.414l1.072-1.05a1 1 0 0 1 1.414.015l4.975 5.079a1 1 0 0 0 1.492-.072l13.593-16.82a1 1 0 0 1 1.407-.148l1.166.942z" clip-rule="evenodd"/></svg>