<svg height="43" viewBox="0 0 25 43" width="25" xmlns="http://www.w3.org/2000/svg"><path d="m2.36938238.47918545c-.36493319-.4326658-.95794962-.59122035-1.48656607-.39773006-.52861645.1934903-.88281631.69871497-.88281631 1.26306167v35.06205424c0 .5804709.37029985 1.0937577.92038296 1.2764985.13684995.0456852.27906656.0671841.42128317.0671841.41591649 0 .81841633-.1934903 1.07601623-.5428478l5.99993091-8.0943441 4.16184833 11.9238396c.5339831 1.5264235 2.2030158 2.332633 3.7271485 1.7978473 1.5241327-.5347856 2.3291324-2.2063268 1.7951493-3.7327503l-4.0840317-11.6981008 9.3862962 1.8193462c.5608164.1128694 1.1243162-.1478051 1.4114328-.6369055.2871165-.4917879.2361332-1.1098819-.1314833-1.5452351zm7.54284696 23.38813965c-.5071498-.1021199-1.02503292.1021199-1.3309328.5186615l-5.89528096 7.9546011v-27.3116929l17.50605962 20.8324553z" fill="#fff"/></svg>