<svg height="46" viewBox="0 0 41 46" width="41" xmlns="http://www.w3.org/2000/svg"><path d="m19.6875 0c-7.7653125 0-14.0625 6.3928125-14.0625 14.2790625v2.5959375h-2.8125c-1.5525 0-2.8125 1.26-2.8125 2.8125v22.5c0 1.5525 1.26 2.8125 2.8125 2.8125h33.75c1.5525 0 2.8125-1.26 2.8125-2.8125v-22.5c0-1.5525-1.26-2.8125-2.8125-2.8125h-2.8125v-2.5959375c0-7.88625-6.2971875-14.2790625-14.0625-14.2790625zm-11.25 14.2790625c0-6.3225 5.045625-11.4665625 11.25-11.4665625s11.25 5.1440625 11.25 11.4665625v2.5959375h-22.5zm28.125 27.9084375h-33.75v-22.5h33.75zm-11.25-11.25c0-3.1078125-2.5171875-5.625-5.625-5.625s-5.625 2.5171875-5.625 5.625 2.5171875 5.625 5.625 5.625 5.625-2.5171875 5.625-5.625zm-5.625 2.8125c-1.5496875 0-2.8125-1.2628125-2.8125-2.8125s1.2628125-2.8125 2.8125-2.8125 2.8125 1.2628125 2.8125 2.8125-1.2628125 2.8125-2.8125 2.8125z" fill="#fff" transform="translate(.833333 .5)"/></svg>