<svg height="45" viewBox="0 0 45 45" width="45" xmlns="http://www.w3.org/2000/svg"><path d="m22.5 0c-12.425625 0-22.5 10.074375-22.5 22.5s10.074375 22.5 22.5 22.5 22.5-10.074375 22.5-22.5-10.074375-22.5-22.5-22.5zm0 42.1875c-10.85625 0-19.6875-8.83125-19.6875-19.6875s8.83125-19.6875 19.6875-19.6875 19.6875 8.83125 19.6875 19.6875-8.83125 19.6875-19.6875 19.6875zm9.0984375-30.72375-5.2340625 3.268125-3.4959375 2.1796875c2.806875.185625 5.034375 2.4103125 5.22 5.22l2.1796875-3.493125 3.268125-5.236875c.34875-.5540625.2671875-1.276875-.196875-1.738125-.466875-.466875-1.1925-.545625-1.7409375-.1996875zm-14.686875 11.4046875-2.1796875 3.4959375-3.268125 5.236875c-.34875.5540625-.2671875 1.276875.196875 1.738125.2728125.27.6328125.410625.995625.410625.25875 0 .5175-.0703125.7453125-.21375l5.2340625-3.268125 3.4959375-2.1796875c-2.806875-.185625-5.034375-2.413125-5.22-5.22zm5.956875-5.956875c-.12375-.0084375-.241875-.0365625-.3684375-.0365625-3.1078125 0-5.625 2.5171875-5.625 5.625 0 .1265625.028125.2446875.0365625.3684375.185625 2.806875 2.413125 5.034375 5.22 5.22.12375.0084375.241875.0365625.3684375.0365625 3.1078125 0 5.625-2.5171875 5.625-5.625 0-.1265625-.028125-.2446875-.0365625-.3684375-.185625-2.806875-2.413125-5.034375-5.22-5.22zm-3.1809375 5.5884375c0-1.5496875 1.2628125-2.8125 2.8125-2.8125s2.8125 1.2628125 2.8125 2.8125-1.2628125 2.8125-2.8125 2.8125-2.8125-1.2628125-2.8125-2.8125z" fill="#fff"/></svg>