<svg height="35" viewBox="0 0 38 35" width="38" xmlns="http://www.w3.org/2000/svg"><path d="m36.4166667 3.18181818h-4.75c0-1.75636363-1.4186667-3.18181818-3.1666667-3.18181818h-3.1666667c-1.748 0-3.1666666 1.42545455-3.1666666 3.18181818h-20.58333337c-.874 0-1.58333333.71272727-1.58333333 1.59090909s.70933333 1.59090909 1.58333333 1.59090909h20.58333337c0 1.75636364 1.4186666 3.18181819 3.1666666 3.18181819h3.1666667c1.748 0 3.1666667-1.42545455 3.1666667-3.18181819h4.75c.874 0 1.5833333-.71272727 1.5833333-1.59090909s-.7093333-1.59090909-1.5833333-1.59090909zm-7.9166667 3.18181818h-3.1666667v-3.18181818h3.1666667zm7.9166667 9.54545454h-20.5833334c0-1.7563636-1.4186666-3.1818182-3.1666666-3.1818182h-3.1666667c-1.748 0-3.16666667 1.4254546-3.16666667 3.1818182h-4.75c-.874 0-1.58333333.7127273-1.58333333 1.5909091s.70933333 1.5909091 1.58333333 1.5909091h4.75c0 1.7563636 1.41866667 3.1818182 3.16666667 3.1818182h3.1666667c1.748 0 3.1666666-1.4254546 3.1666666-3.1818182h20.5833334c.874 0 1.5833333-.7127273 1.5833333-1.5909091s-.7093333-1.5909091-1.5833333-1.5909091zm-23.75 3.1818182h-3.1666667v-3.1818182h3.1666667zm23.75 9.5454545h-11.0833334c0-1.7563636-1.4186666-3.1818181-3.1666666-3.1818181h-3.1666667c-1.748 0-3.1666667 1.4254545-3.1666667 3.1818181h-14.24999997c-.874 0-1.58333333.7127273-1.58333333 1.5909091s.70933333 1.5909091 1.58333333 1.5909091h14.24999997c0 1.7563637 1.4186667 3.1818182 3.1666667 3.1818182h3.1666667c1.748 0 3.1666666-1.4254545 3.1666666-3.1818182h11.0833334c.874 0 1.5833333-.7127273 1.5833333-1.5909091s-.7093333-1.5909091-1.5833333-1.5909091zm-14.25 3.1818182h-3.1666667v-3.1818182h3.1666667z" fill="#fff"/></svg>