<?xml version="1.0" encoding="UTF-8"?>
<svg width="236px" height="26px" viewBox="0 0 236 26" version="1.1" xmlns="http://www.w3.org/2000/svg" xmlns:xlink="http://www.w3.org/1999/xlink">
    <title>SM-logo</title>
    <g id="approved" stroke="none" stroke-width="1" fill="none" fill-rule="evenodd">
        <g id="Malwarebytes-LP2" transform="translate(-41.000000, -1963.000000)">
            <g id="UPSELL_01" transform="translate(0.000000, 1896.000000)">
                <g id="SM-logo" transform="translate(41.000000, 68.000000)">
                    <path d="M114.822776,20.3563867 L109.874817,5.88920254 L109.874817,20.3563867 L105.918553,20.3563867 L105.918553,2.60056457 L113.259894,2.60056457 L116.785139,13.2286521 L120.499612,2.60056457 L127.858474,2.60056457 L127.858474,20.3563867 L123.103248,20.3563867 L123.103248,5.88920254 L118.053667,20.3563867 L114.822776,20.3563867 Z M144.184635,14.435427 L134.600593,14.435427 C134.600593,14.6718419 134.600593,14.8764996 134.600593,15.0494001 C134.545516,15.8495026 134.859647,16.6305271 135.452119,17.166549 C136.019228,17.6425969 136.739542,17.8935733 137.477558,17.8722653 C138.942322,17.8722653 139.818377,17.184192 140.116236,15.8080452 L144.093525,16.0656316 C142.98152,19.1002117 140.72597,20.618678 137.326877,20.6210303 C136.019326,20.6606358 134.720753,20.3911396 133.535311,19.8341567 C132.495581,19.3073834 131.611155,18.5153562 130.970222,17.5370501 C130.276539,16.4639237 129.923341,15.2037538 129.957502,13.9237826 C129.957502,11.8301576 130.633816,10.1423195 131.986445,8.86026817 C133.339074,7.57821689 135.075999,6.93601506 137.19722,6.93366267 C139.008318,6.89517908 140.769093,7.53522504 142.138171,8.72971066 C143.507153,9.92707598 144.192812,11.8289814 144.195148,14.435427 L144.184635,14.435427 Z M134.586577,12.184192 L139.877949,12.184192 C139.744788,10.382263 138.904944,9.48129852 137.358415,9.48129852 C135.706759,9.48129852 134.782813,10.382263 134.586577,12.184192 Z M159.175688,15.4269584 C159.035401,16.9249692 158.271429,18.293011 157.073156,19.1919548 C155.849015,20.151729 154.268612,20.6316161 152.331947,20.6316161 C150.229415,20.6316161 148.519355,20.0141143 147.198264,18.7896965 C145.877173,17.5652788 145.214876,15.9209598 145.214876,13.8496824 C145.214876,11.7784051 145.894694,10.1270289 147.243819,8.84968243 C148.592944,7.57233592 150.397617,6.9266055 152.661343,6.9266055 C154.476529,6.9266055 155.986848,7.41002117 157.178283,8.37332392 C158.320017,9.24013685 159.041286,10.5554019 159.161671,11.99012 L155.061734,12.1983063 C154.923901,10.6222065 154.148301,9.83298048 152.734932,9.83062809 C150.996839,9.83062809 150.126624,11.0879793 150.124288,13.6026817 C150.124288,15.2752294 150.366079,16.340861 150.853166,16.7784051 C151.336703,17.2428581 151.982694,17.4964571 152.650831,17.4841214 C154.010468,17.4841214 154.821111,16.7243002 155.082759,15.2046577 L159.182697,15.4269584 L159.175688,15.4269584 Z M165.132862,2.60056457 L165.132862,9.01199718 C165.935329,7.63585039 167.280949,6.94071983 169.155707,6.94071983 C170.047746,6.91709842 170.931622,7.11717133 171.727804,7.52293578 C172.374881,7.84360594 172.902057,8.36578491 173.231114,9.01199718 C173.567962,9.85870674 173.719749,10.76854 173.67615,11.6796048 L173.67615,20.3563867 L169.281859,20.3563867 L169.281859,12.9463656 C169.3023,12.3371055 169.26357,11.7272919 169.166219,11.1256175 C169.084165,10.7997256 168.895249,10.5112732 168.630074,10.3069866 C168.327199,10.0794736 167.95646,9.96250129 167.578808,9.97529993 C166.989334,9.9905931 166.418971,10.18902 165.945841,10.5434016 C165.406191,10.9209598 165.136366,11.7219478 165.136366,12.9534227 L165.136366,20.3634439 L160.868226,20.3634439 L160.868226,2.60056457 L165.132862,2.60056457 Z M189.420611,20.3563867 L185.162984,20.3563867 C185.007246,19.6823466 184.937766,18.9910163 184.956235,18.2992237 C184.376755,19.0984641 183.609912,19.7409326 182.724046,20.1693719 C181.917592,20.4885104 181.056881,20.6455464 180.190495,20.6316161 C178.990283,20.683159 177.807408,20.329183 176.829948,19.6259704 C175.986111,18.9954731 175.503982,17.9875741 175.540395,16.9301341 C175.539637,16.1109201 175.80277,15.3135568 176.290299,14.6577276 C176.914432,13.8787124 177.758848,13.3089837 178.711715,13.0239944 C179.815544,12.6287932 181.844487,12.3182781 184.781024,12.1453776 L184.781024,11.3902611 C184.781024,10.1176194 184.059154,9.48129852 182.615416,9.48129852 C181.068887,9.48129852 180.208016,10.1176194 180.032805,11.3902611 L175.985431,11.037403 C176.180201,9.63056046 177.088348,8.42732222 178.382318,7.8616796 C179.814321,7.21694943 181.369398,6.89654466 182.937804,6.92307692 C183.901099,6.91721047 184.861824,7.02377882 185.800752,7.24064926 C186.563964,7.38446569 187.283659,7.70454088 187.903284,8.17572336 C188.349485,8.51990414 188.699587,8.97455344 188.919507,9.49541284 C189.13845,10.2835285 189.228402,11.102301 189.185828,11.9195483 L189.185828,17.8969654 C189.143888,18.7299884 189.237397,19.5643151 189.462661,20.3669725 L189.420611,20.3563867 Z M184.763502,14.0578687 C181.686797,14.3283933 180.149613,15.151729 180.151949,16.5278758 C180.147899,16.9735842 180.322192,17.4021724 180.635531,17.7170078 C181.013268,18.0729805 181.521131,18.2545254 182.037219,18.2180663 C182.774979,18.2268878 183.480882,17.915828 183.975053,17.3641496 C184.503397,16.7898388 184.786548,16.0295198 184.763502,15.2470007 L184.763502,14.047283 L184.763502,14.0578687 Z M204.839179,20.3563867 L200.448391,20.3563867 L200.448391,12.9816514 C200.469727,12.3674198 200.42863,11.7526013 200.325743,11.146789 C200.242071,10.8066911 200.039233,10.5084638 199.754555,10.3069866 C199.419056,10.0653023 199.013984,9.94132415 198.601667,9.95412844 C197.063315,9.95412844 196.288882,10.9633028 196.288882,12.9745942 L196.288882,20.3493296 L191.898094,20.3493296 L191.898094,7.21594919 L195.984015,7.21594919 L195.984015,9.44248412 C196.663833,8.38390967 197.326131,7.69936486 197.984924,7.39943543 C198.656039,7.09242176 199.385388,6.93590627 200.122499,6.94061208 C201.538203,6.94061208 202.679411,7.27828746 203.546121,7.95342272 C204.412832,8.62855799 204.845019,9.94942367 204.842692,11.9160198 L204.842692,20.3563867 L204.839179,20.3563867 Z M211.984283,7.21594919 L211.984283,20.3563867 L207.593496,20.3563867 L207.593496,7.21594919 L211.984283,7.21594919 Z M211.984283,2.2335921 L211.984283,6.11503176 L207.593496,6.11503176 L207.593496,2.2335921 L211.984283,2.2335921 Z M227.819853,15.4269584 C227.679566,16.9249692 226.915594,18.293011 225.717321,19.1919548 C224.49318,20.151729 222.913945,20.6316161 220.979616,20.6316161 C218.877084,20.6316161 217.16352,20.0141143 215.842429,18.7896965 C214.521338,17.5652788 213.859041,15.9209598 213.859041,13.8496824 C213.859041,11.7784051 214.53886,10.1270289 215.887984,8.84968243 C217.237109,7.57233592 219.041782,6.9266055 221.305508,6.9266055 C223.120694,6.9266055 224.631013,7.41002117 225.822448,8.37332392 C226.964183,9.24013685 227.685451,10.5554019 227.805836,11.99012 L223.705899,12.1983063 C223.568066,10.6222065 222.793634,9.83298048 221.382601,9.83062809 C219.642172,9.83062809 218.770789,11.0879793 218.768453,13.6026817 C218.768453,15.2752294 219.010244,16.340861 219.500835,16.7784051 C219.981344,17.229116 220.617433,17.4734218 221.27397,17.4594213 C222.633608,17.4594213 223.444251,16.6996001 223.705899,15.1799577 L227.805836,15.4022583 L227.819853,15.4269584 Z" id="Shape" fill="#000000" fill-rule="nonzero"></path>
                    <path d="M16.6590618,6.07268878 L12.4820316,7.2900494 C11.9178521,5.85038814 10.7299216,5.13055752 8.89020608,5.13055752 C6.93134711,5.13055752 5.95717396,5.67748765 5.95717396,6.77134792 C5.95662229,7.20561086 6.15915125,7.61479205 6.50383227,7.87579393 C6.85425427,8.17925194 7.69526707,8.44036697 8.97781158,8.66266761 C10.582079,8.90124128 12.1626291,9.28023516 13.7015001,9.79534227 C14.6914627,10.1736126 15.5626853,10.812077 16.2245385,11.644319 C16.8905305,12.4410825 17.253241,13.4504739 17.2478317,14.4918843 C17.2478317,16.1385556 16.5153887,17.560574 15.0506248,18.7579393 C13.5858608,19.9553046 11.4132445,20.5551635 8.53277564,20.5575159 C6.6163144,20.6147071 4.71729893,20.1761363 3.0171334,19.283698 C1.53808431,18.493705 0.446968727,17.125752 0,15.5010586 L4.55548597,14.611856 C5.06943823,16.3079275 6.49915998,17.1559633 8.84465122,17.1559633 C9.97301005,17.1559633 10.8210313,16.9689485 11.374698,16.5913903 C11.869557,16.3225492 12.1886057,15.8125382 12.2157108,15.2470007 C12.2228654,14.7214869 11.9298802,14.2384743 11.4623035,14.00494 C10.9576959,13.7120677 9.98352271,13.4333098 8.54679252,13.1757234 C5.86022387,12.7052458 3.94691977,12.0501059 2.8068802,11.2103035 C1.66684064,10.3705011 1.09565278,9.15314044 1.09331663,7.55822159 C1.09078348,5.94472187 1.84891416,4.42577599 3.13627688,3.46506704 C4.50292267,2.35709245 6.3496466,1.79604799 8.6834571,1.79604799 C12.823109,1.79604799 15.4816439,3.22159492 16.6590618,6.07268878 Z M31.1630282,6.80310515 L26.2921625,19.7318278 C25.9091659,20.8101879 25.4404168,21.8556854 24.8904745,22.858151 C24.4897478,23.5240738 23.9135934,24.0651491 23.22597,24.4213126 C22.5005965,24.8094566 21.47386,25 20.1948197,25 C19.4564326,24.99181 18.719208,24.938785 17.9871611,24.8412138 L17.9871611,21.7678193 C18.7325887,21.8863252 19.4857375,21.9488359 20.2403746,21.9548342 C21.1479676,21.9548342 21.7541976,21.8101623 22.062569,21.5137615 C22.3990952,21.1692555 22.6406479,20.7423834 22.763413,20.2752294 L17.093585,6.81016231 L21.9434255,6.81016231 L24.9500462,14.8235709 L27.8200024,6.81016231 L31.1630282,6.80310515 Z M43.6941189,10.0564573 L40.3475888,10.8327452 C39.9551162,9.61185603 38.9459008,9.00141143 37.3094301,9.00141143 C35.7640691,9.00141143 34.9966449,9.40719831 34.9966449,10.2152435 C34.9923736,10.5274245 35.1522947,10.8186257 35.4171513,10.9809457 C35.7009931,11.1714891 36.4403835,11.3338038 37.6353225,11.4678899 C38.9694647,11.5881908 40.2907942,11.8243072 41.5845784,12.1736062 C42.3813739,12.4023621 43.0886838,12.8730728 43.6100176,13.5215243 C44.1220322,14.1860069 44.3872957,15.0097967 44.3599207,15.8503881 C44.3689492,17.2210728 43.6781506,18.5003392 42.5307178,19.2378264 C41.3159216,20.1082098 39.6117026,20.5445777 37.4180609,20.5469301 C33.4466116,20.5469301 31.0754227,19.2190073 30.3044943,16.5631616 L34.1801616,16.0656316 C34.4955414,17.2771113 35.6472617,17.8828511 37.6353225,17.8828511 C38.2951676,17.9018203 38.9516596,17.7816283 39.5626435,17.5299929 C40.0882765,17.293578 40.3475888,16.9760056 40.3475888,16.5737474 C40.3475888,15.9562456 39.7658883,15.5857445 38.5954788,15.4693013 C35.4510254,15.1305575 33.3811995,14.6083275 32.386001,13.9026112 C31.4185665,13.241222 30.8561771,12.1259459 30.8967075,10.9491884 C30.8967075,9.67184192 31.4749038,8.60973888 32.6488175,7.77346507 C33.8227312,6.93719125 35.4136471,6.51729005 37.4916495,6.51729005 C39.1269522,6.51729005 40.4433708,6.79840038 41.4409054,7.36062103 C42.4760966,7.9744973 43.2740854,8.92356594 43.7046315,10.0529287 L43.6941189,10.0564573 Z M51.263234,9.89767114 L51.263234,15.5998589 C51.263234,16.3055752 51.3823775,16.7819337 51.6311771,17.0112915 C51.8799767,17.2406493 52.458173,17.3641496 53.3832871,17.3641496 C53.8072977,17.3641496 54.2943843,17.3641496 54.8480511,17.3147495 L54.8480511,20.2575865 C53.8951897,20.4177934 52.9330153,20.5156227 51.9675822,20.5504587 C50.0507739,20.5504587 48.698145,20.236415 47.8921744,19.5977417 C47.0862038,18.9590685 46.690227,17.815808 46.690227,16.1538462 L46.690227,9.9047283 L44.237273,9.9047283 L44.237273,6.81016231 L46.9635561,6.81016231 L47.3385076,2.83697953 L51.2877636,2.56880734 L51.2877636,6.80310515 L54.6483105,6.80310515 L54.6483105,9.89767114 L51.263234,9.89767114 Z M69.9021801,14.2025406 L59.8731025,14.2025406 C59.8731025,14.4460127 59.8555814,14.654199 59.8555814,14.8306281 C59.797126,15.6577038 60.1264951,16.4646532 60.7456533,17.0112915 C61.3423739,17.505932 62.0965997,17.7666079 62.8692106,17.7452364 C64.4017228,17.7452364 65.3209965,17.0395201 65.6270317,15.6280875 L69.7935493,15.8927311 C68.6254759,19.00494 66.2647997,20.5610445 62.7115207,20.5610445 C61.3487223,20.6002317 59.9951865,20.3237795 58.7552563,19.7529993 C57.6712283,19.2187723 56.7455926,18.4071651 56.0710238,17.3994354 C55.3480434,16.3038463 54.9807122,15.0092493 55.0197578,13.6944248 C55.0197578,11.5513997 55.7206018,9.82239473 57.1222898,8.50741002 C58.5239778,7.19242531 60.3473403,6.53258057 62.5923772,6.52787579 C64.4775054,6.48573372 66.3130357,7.13821934 67.7540932,8.36273818 C69.1884873,9.58833216 69.9056843,11.5372853 69.9056843,14.2095977 L69.9021801,14.2025406 Z M59.8555814,11.8948483 L65.3957532,11.8948483 C65.2555844,10.0482239 64.3760252,9.12491179 62.7570755,9.12491179 C61.028327,9.12491179 60.0611623,10.0482239 59.8555814,11.8948483 Z M93.9130953,20.2681722 L89.3155587,20.2681722 L89.3155587,12.8228652 C89.339374,12.139838 89.301843,11.4560411 89.2034237,10.7798165 C89.1272808,10.4521772 88.9241251,10.1688314 88.6392443,9.99294284 C88.2637505,9.76237777 87.8272742,9.65280788 87.3882378,9.67889908 C86.8412858,9.69073625 86.3075471,9.85038671 85.8428767,10.1411433 C85.3172437,10.4563632 85.0544272,11.3502705 85.0544272,12.8228652 L85.0544272,20.2752294 L80.4638991,20.2752294 L80.4638991,12.8228652 C80.500817,12.1232866 80.4442436,11.4218843 80.2956965,10.7374735 C80.1809181,10.4101773 79.9566945,10.1332509 79.6614327,9.95412844 C78.6934765,9.46300974 77.5277406,9.60192573 76.7003668,10.3069866 C76.3184068,10.7374735 76.1221705,11.5702188 76.1221705,12.8052223 L76.1221705,20.2752294 L71.6612985,20.2752294 L71.6612985,6.81016231 L75.9855059,6.81016231 L75.9855059,8.86379675 C76.7108795,7.30769231 78.1756434,6.52787579 80.3657809,6.52787579 C82.3515056,6.52787579 83.7858996,7.30651611 84.668963,8.86379675 C85.5333373,7.3088685 87.0401519,6.53022818 89.1894068,6.52787579 C90.1038152,6.50459578 91.0113349,6.69291453 91.8421013,7.07833451 C92.5068512,7.3682642 93.0636505,7.86224673 93.4330172,8.48976711 C93.7554054,9.07551164 93.9130953,10.0882145 93.9130953,11.51729 L93.9130953,20.2752294 L93.9130953,20.2681722 Z" id="Shape" fill="#000000" fill-rule="nonzero"></path>
                    <ellipse id="Oval" stroke="#000000" stroke-width="0.5" cx="231.201426" cy="3.82498236" rx="3.79857445" ry="3.82498236"></ellipse>
                    <path d="M229.887343,1.27734651 C230.300259,1.20365879 230.719012,1.16822484 231.13835,1.17148906 C231.839194,1.17148906 232.280725,1.298518 232.596105,1.58786168 C232.858568,1.83440548 233.002853,2.18283984 232.992082,2.54410727 C233.000263,3.14153379 232.611876,3.67116082 232.042438,3.83909668 L232.042438,3.86379675 C232.453989,4.04584423 232.736452,4.43676286 232.781829,4.88708539 C232.870366,5.36271486 233.001733,5.82923776 233.174301,6.28087509 L232.497987,6.28087509 C232.345987,5.8874182 232.228726,5.48123561 232.147565,5.06704305 C232.000388,4.36132675 231.730563,4.1037403 231.13835,4.07904023 L230.525111,4.07904023 L230.525111,6.28087509 L229.873326,6.28087509 L229.887343,1.27734651 Z M230.539128,3.60268172 L231.20493,3.60268172 C231.905774,3.60268172 232.340297,3.22159492 232.340297,2.63937897 C232.340297,1.98306281 231.870732,1.69724771 231.1804,1.69019054 C230.965064,1.68531287 230.749887,1.70544096 230.539128,1.75017643 L230.539128,3.60268172 Z" id="Shape" fill="#000000" fill-rule="nonzero"></path>
                </g>
            </g>
        </g>
    </g>
</svg>